<svg xmlns="http://www.w3.org/2000/svg" style="display: none;">
  <symbol id="icon-clock" viewBox="0 0 24 24">
    <path d="M12 3C7.04 3 3 7.05 3 12C3 16.95 7.04 21 12 21C16.95 21 21 16.95 21 12C21 7.05 16.95 3 12 3ZM14.7 12.9L12 12.9C11.46 12.9 11.1 12.54 11.1 12L11.1 7.5C11.1 6.95 11.46 6.59 12 6.59C12.54 6.59 12.9 6.95 12.9 7.5L12.9 11.1L14.7 11.1C15.24 11.1 15.6 11.46 15.6 12C15.6 12.54 15.24 12.9 14.7 12.9Z" fill="#70737C"/>
  </symbol>

  <symbol id="icon-fire" viewBox="0 0 24 24">
    <path d="M18.92 11.36C18.52 10.45 17.93 9.64 17.2 8.98L16.6 8.43C16.58 8.41 16.56 8.4 16.53 8.39C16.5 8.38 16.48 8.38 16.45 8.39C16.42 8.4 16.4 8.41 16.38 8.43C16.36 8.45 16.34 8.47 16.33 8.49L16.07 9.26C15.9 9.75 15.59 10.24 15.16 10.73C15.13 10.76 15.09 10.77 15.07 10.77C15.05 10.77 15.01 10.77 14.98 10.74C14.95 10.71 14.94 10.68 14.94 10.64C15.02 9.39 14.65 7.99 13.83 6.47C13.16 5.2 12.22 4.21 11.05 3.52L10.2 3.02C10.09 2.95 9.95 3.04 9.95 3.17L10 4.16C10.03 4.84 9.95 5.44 9.77 5.93C9.54 6.54 9.21 7.11 8.79 7.62C8.5 7.97 8.18 8.29 7.81 8.57C6.94 9.24 6.23 10.1 5.74 11.08C5.25 12.07 5 13.16 5 14.26C5 15.24 5.19 16.18 5.57 17.07C5.93 17.93 6.46 18.71 7.13 19.36C7.8 20.02 8.57 20.54 9.44 20.91C10.33 21.28 11.28 21.47 12.26 21.47C13.25 21.47 14.2 21.28 15.09 20.91C15.95 20.55 16.74 20.02 17.4 19.37C18.07 18.7 18.6 17.93 18.96 17.08C19.34 16.19 19.54 15.23 19.53 14.27C19.53 13.26 19.33 12.28 18.92 11.36Z" fill="#E55C5C" fill-opacity="1.000000" fill-rule="nonzero"/>
  </symbol>

  <symbol id="icon-facebook" viewBox="0 0 24 24">
    <path d="M2 12.05C2 17.02 5.61 21.16 10.33 22L10.33 14.77L7.83 14.77L7.83 12L10.33 12L10.33 9.77C10.33 7.27 11.94 5.88 14.22 5.88C14.94 5.88 15.72 6 16.44 6.11L16.44 8.66L15.16 8.66C13.94 8.66 13.66 9.27 13.66 10.05L13.66 12L16.33 12L15.88 14.77L13.66 14.77L13.66 22C18.38 21.16 22 17.02 22 12.05C22 6.52 17.5 2 12 2C6.5 2 2 6.52 2 12.05Z"/>
  </symbol>

  <symbol id="icon-instagram" viewBox="0 0 24 24">
    <path d="M12 8.87C10.27 8.87 8.87 10.27 8.87 12C8.87 13.72 10.27 15.12 12 15.12C13.72 15.12 15.12 13.72 15.12 12C15.12 10.27 13.72 8.87 12 8.87ZM21.37 12C21.37 10.7 21.38 9.42 21.3 8.13C21.23 6.63 20.89 5.3 19.79 4.2C18.69 3.1 17.36 2.76 15.86 2.69C14.57 2.62 13.29 2.63 12 2.63C10.7 2.63 9.42 2.62 8.13 2.69C6.63 2.76 5.3 3.1 4.2 4.2C3.1 5.3 2.76 6.63 2.69 8.13C2.62 9.42 2.63 10.7 2.63 12C2.63 13.29 2.62 14.57 2.69 15.86C2.76 17.36 3.11 18.69 4.2 19.79C5.3 20.89 6.63 21.23 8.13 21.3C9.42 21.37 10.71 21.36 12 21.36C13.29 21.36 14.57 21.37 15.86 21.3C17.36 21.23 18.7 20.89 19.79 19.79C20.89 18.69 21.23 17.36 21.3 15.86C21.38 14.57 21.37 13.29 21.37 12ZM12 16.8C9.33 16.8 7.19 14.66 7.19 12C7.19 9.33 9.33 7.19 12 7.19C14.66 7.19 16.8 9.33 16.8 12C16.8 14.66 14.66 16.8 12 16.8ZM17 8.11C16.38 8.11 15.88 7.61 15.88 6.99C15.88 6.37 16.38 5.87 17 5.87C17.62 5.87 18.12 6.37 18.12 6.99C18.12 7.14 18.09 7.28 18.04 7.42C17.98 7.56 17.9 7.68 17.79 7.79C17.69 7.89 17.57 7.97 17.43 8.03C17.29 8.09 17.15 8.11 17 8.11Z"/>
  </symbol>

  <symbol id="icon-search" viewBox="0 0 24 24">
    <path d="M19.77 18.65L16.8 15.7C17.96 14.26 18.51 12.44 18.36 10.61C18.21 8.77 17.36 7.06 15.99 5.83C14.62 4.6 12.83 3.95 10.99 4C9.15 4.05 7.4 4.8 6.1 6.1C4.8 7.41 4.05 9.16 4 11C3.95 12.84 4.6 14.63 5.83 16C7.06 17.37 8.77 18.22 10.6 18.37C12.43 18.52 14.26 17.97 15.69 16.81L18.64 19.76C18.71 19.83 18.8 19.89 18.9 19.93C18.99 19.97 19.1 20 19.2 20C19.31 20 19.41 19.97 19.51 19.93C19.61 19.89 19.7 19.83 19.77 19.76C19.91 19.61 20 19.41 20 19.2C20 18.99 19.91 18.8 19.77 18.65ZM11.21 16.81C10.1 16.81 9.02 16.49 8.1 15.87C7.18 15.25 6.46 14.38 6.04 13.36C5.61 12.33 5.5 11.21 5.72 10.12C5.93 9.03 6.47 8.04 7.25 7.25C8.03 6.47 9.03 5.94 10.12 5.72C11.2 5.5 12.33 5.61 13.35 6.04C14.37 6.46 15.25 7.18 15.86 8.1C16.48 9.02 16.8 10.11 16.8 11.21C16.8 12.7 16.21 14.12 15.16 15.17C14.12 16.22 12.69 16.81 11.21 16.81Z" fill="#70737C" fill-opacity="1.000000" fill-rule="nonzero"/>
  </symbol>

  <symbol id="icon-heart" viewBox="0 0 24 24">
    <path id="Vector 6" d="M12 7C13.5 6 16.9 4.59 18.5 7C20.5 10 21 11.5 13.5 18.5L11.5 20.5L4 13.5L3 8.5L6.5 6L9.5 6L11.5 7L12 7Z" fill-opacity="1.000000" fill-rule="evenodd"/>
		<path id="Vector" d="M19.65 5.8C18.62 4.78 17.26 4.16 15.8 4.04C14.35 3.93 12.9 4.33 11.72 5.18C10.49 4.28 8.95 3.86 7.42 4.03C5.89 4.2 4.48 4.93 3.47 6.08C2.46 7.24 1.94 8.72 2 10.24C2.06 11.76 2.7 13.2 3.79 14.27L9.83 20.23C10.33 20.72 11.01 21 11.72 21C12.43 21 13.11 20.72 13.62 20.23L19.65 14.27C20.79 13.14 21.42 11.62 21.42 10.03C21.42 8.44 20.79 6.92 19.65 5.8ZM18.28 12.95L12.25 18.9C12.18 18.97 12.1 19.02 12.01 19.06C11.92 19.09 11.82 19.11 11.72 19.11C11.63 19.11 11.53 19.09 11.44 19.06C11.35 19.02 11.27 18.97 11.2 18.9L5.16 12.92C4.4 12.15 3.98 11.12 3.98 10.04C3.98 8.97 4.4 7.93 5.16 7.17C5.94 6.41 6.99 5.99 8.08 5.99C9.17 5.99 10.22 6.41 10.99 7.17C11.09 7.26 11.19 7.33 11.31 7.38C11.43 7.42 11.56 7.45 11.68 7.45C11.81 7.45 11.94 7.42 12.06 7.38C12.18 7.33 12.28 7.26 12.37 7.17C13.15 6.41 14.2 5.99 15.29 5.99C16.38 5.99 17.43 6.41 18.2 7.17C18.98 7.92 19.42 8.95 19.43 10.03C19.45 11.1 19.03 12.14 18.28 12.92L18.28 12.95Z" fill="currentColor" fill-opacity="1.000000" fill-rule="nonzero"/>
  </symbol>

  <symbol id="icon-cart" viewBox="0 0 24 24">
    <path d="M10.38 19.83C10.38 20.66 9.71 21.33 8.88 21.33C8.05 21.33 7.38 20.66 7.38 19.83C7.38 19 8.05 18.33 8.88 18.33C9.71 18.33 10.38 19 10.38 19.83Z" fill="currentColor" />
    <path d="M19.5 19.83C19.5 20.66 18.82 21.33 18 21.33C17.17 21.33 16.5 20.66 16.5 19.83C16.5 19 17.17 18.33 18 18.33C18.82 18.33 19.5 19 19.5 19.83Z" fill="currentColor" />
    <path d="M22.05 3.58C21.99 3.5 21.91 3.44 21.82 3.39C21.73 3.35 21.63 3.33 21.53 3.33L7.65 3.33L8.09 4.66L20.66 4.66L18.88 12.66L8.88 12.66L5.83 3.02C5.8 2.91 5.74 2.82 5.67 2.74C5.59 2.67 5.5 2.61 5.39 2.58L2.66 1.74C2.58 1.72 2.49 1.71 2.4 1.72C2.31 1.72 2.23 1.75 2.15 1.79C1.99 1.87 1.88 2.02 1.82 2.19C1.77 2.35 1.79 2.54 1.87 2.7C1.96 2.85 2.1 2.97 2.27 3.02L4.66 3.76L7.72 13.42L6.63 14.32L6.54 14.4C6.27 14.71 6.12 15.11 6.11 15.52C6.1 15.93 6.23 16.34 6.49 16.66C6.67 16.88 6.9 17.06 7.16 17.17C7.42 17.29 7.71 17.34 8 17.33L19.12 17.33C19.3 17.33 19.47 17.26 19.59 17.13C19.72 17.01 19.79 16.84 19.79 16.66C19.79 16.48 19.72 16.32 19.59 16.19C19.47 16.07 19.3 16 19.12 16L7.89 16C7.81 15.99 7.74 15.97 7.67 15.93C7.61 15.89 7.55 15.83 7.51 15.77C7.48 15.7 7.46 15.62 7.46 15.55C7.46 15.47 7.48 15.4 7.51 15.33L9.12 14L19.41 14C19.57 14 19.72 13.95 19.84 13.85C19.96 13.76 20.05 13.63 20.08 13.48L22.2 4.14C22.22 4.04 22.21 3.94 22.19 3.84C22.16 3.74 22.11 3.65 22.05 3.58Z" fill="currentColor" />
  </symbol>

  <symbol id="icon-menu" viewBox="0 0 24 24">
    <path d="M13 5.25C12.58 5.25 12.25 5.58 12.25 6C12.25 6.41 12.58 6.75 13 6.75L19 6.75C19.41 6.75 19.75 6.41 19.75 6C19.75 5.58 19.41 5.25 19 5.25L13 5.25ZM5 11.25C4.58 11.25 4.25 11.58 4.25 12C4.25 12.41 4.58 12.75 5 12.75L19 12.75C19.41 12.75 19.75 12.41 19.75 12C19.75 11.58 19.41 11.25 19 11.25L5 11.25ZM8.25 18C8.25 17.58 8.58 17.25 9 17.25L19 17.25C19.41 17.25 19.75 17.58 19.75 18C19.75 18.41 19.41 18.75 19 18.75L9 18.75C8.58 18.75 8.25 18.41 8.25 18Z" fill="#70737C" fill-opacity="1.000000" fill-rule="evenodd"/>
  </symbol>

  <symbol id="icon-logo" viewBox="0 0 97 21">
    <path d="M0 18.27L2.34 15.66C3.51 16.96 5.09 17.4 6.81 17.4C8.94 17.4 10.09 16.5 10.09 14.85C10.09 14.12 9.91 13.51 9.52 13.11C9.15 12.73 8.74 12.53 7.88 12.38L5.64 12.03C4.05 11.77 2.88 11.22 2.05 10.32C1.17 9.33 0.72 8 0.72 6.26C0.72 2.58 3.17 0 7.18 0C9.73 0 11.57 0.69 13.16 2.4L10.87 4.93C9.7 3.68 8.29 3.5 7.07 3.5C5.15 3.5 4.21 4.69 4.21 6.12C4.21 6.64 4.37 7.19 4.76 7.59C5.12 7.97 5.72 8.29 6.47 8.41L8.66 8.76C10.35 9.02 11.42 9.54 12.2 10.35C13.19 11.39 13.63 12.9 13.63 14.73C13.63 18.73 10.64 21 6.76 21C3.95 21 1.82 20.33 0 18.27Z" fill="#359740" fill-opacity="1" fill-rule="nonzero"/>
    <path d="M17.04 20.82L17.04 0.17L29.24 0.17L29.24 3.77L20.65 3.77L20.65 8.61L27.97 8.61L27.97 12.21L20.65 12.21L20.65 17.22L29.24 17.22L29.24 20.82L17.04 20.82Z" fill="#359740" fill-opacity="1" fill-rule="nonzero"/>
    <path d="M32.78 20.82L32.78 0.17L44.98 0.17L44.98 3.77L36.39 3.77L36.39 8.61L43.71 8.61L43.71 12.21L36.39 12.21L36.39 17.22L44.98 17.22L44.98 20.82L32.78 20.82Z" fill="#359740" fill-opacity="1" fill-rule="nonzero"/>
    <path d="M75.5 20.82L71.89 12.58L69.28 12.58L69.28 20.82L65.67 20.82L65.67 0.17L72.93 0.17C76.7 0.17 78.94 3.04 78.94 6.49C78.94 9.39 77.35 11.19 75.55 11.92L79.69 20.82L75.5 20.82ZM72.69 3.77L69.28 3.77L69.28 9.22L72.69 9.22C74.28 9.22 75.32 8.09 75.32 6.49C75.32 4.9 74.28 3.77 72.69 3.77Z" fill="#359740" fill-opacity="1" fill-rule="nonzero"/>
    <path d="M93.22 20.82L92.13 17.17L85.55 17.17L84.43 20.82L80.65 20.82L87.39 0.17L90.23 0.17L97 20.82L93.22 20.82ZM88.9 6.26L86.56 13.77L91.17 13.77L88.9 6.26Z" fill="#359740" fill-opacity="1" fill-rule="nonzero"/>
    <path d="M60.1 2.14C58.88 0.78 57.13 0.17 55.21 0.17L48.52 0.17L48.52 20.82L52.57 20.82C53.97 16.81 56.09 12.44 54.64 5.95C56.56 12.71 54.67 17.01 53.33 20.82L55.21 20.82C57.13 20.82 58.88 20.21 60.1 18.85C62.18 16.53 61.97 13.51 61.97 10.41C61.97 7.3 62.18 4.46 60.1 2.14ZM54.52 18.38C55.56 15.79 56.65 11.62 55.09 6.52C57.17 9.12 57.49 12.97 57.05 14.72C60.81 10.51 56.95 5.59 53.09 3.49C55.55 8.1 55.18 12.44 53.27 17.66C47.28 13.47 54.4 8.12 52.38 2.36C61.08 6.09 62.64 14.49 54.52 18.38Z" fill="#359740" fill-opacity="1" fill-rule="nonzero"/>
  </symbol>

  <symbol id="icon-phone" viewBox="0 0 24 24">
    <path d="M12.99 2.75C13.85 2.75 14.23 2.75 14.54 2.77C18.03 3.09 20.8 5.86 21.12 9.35C21.14 9.66 21.14 10.04 21.14 10.9L21.14 11.89C21.14 12.31 21.48 12.64 21.89 12.64C22.31 12.64 22.64 12.31 22.64 11.89L22.64 10.85C22.64 10.06 22.64 9.6 22.61 9.21C22.23 5 18.89 1.66 14.67 1.28C14.29 1.24 13.83 1.25 13.04 1.25L12 1.25C11.58 1.25 11.25 1.58 11.25 2C11.25 2.41 11.58 2.75 12 2.75L12.99 2.75ZM7.11 4.02C6.05 3.05 4.44 3.05 3.39 4.02C3.34 4.06 3.3 4.11 3.24 4.17L2.34 5.06C1.44 5.97 1.06 7.27 1.33 8.51C2.91 15.59 8.43 21.11 15.5 22.69C16.75 22.96 18.05 22.58 18.96 21.68L19.85 20.78C19.91 20.72 19.96 20.68 20 20.63C20.97 19.58 20.97 17.96 20 16.91C19.96 16.87 19.91 16.82 19.85 16.76L18.38 15.29C17.36 14.27 15.82 13.98 14.5 14.56C13.74 14.89 12.86 14.72 12.28 14.14L9.88 11.74C9.3 11.16 9.13 10.28 9.46 9.52C10.04 8.2 9.75 6.66 8.72 5.63L7.26 4.17C7.2 4.11 7.15 4.06 7.11 4.02ZM11.95 5.53C11.95 5.12 12.29 4.78 12.7 4.78L13.28 4.78C13.35 4.78 13.4 4.78 13.44 4.78C16.55 4.83 19.06 7.34 19.11 10.45C19.11 10.49 19.11 10.54 19.11 10.61L19.11 11.19C19.11 11.6 18.77 11.94 18.36 11.94C17.94 11.94 17.61 11.6 17.61 11.19L17.61 10.62C17.61 10.53 17.61 10.5 17.61 10.47C17.58 8.17 15.72 6.31 13.42 6.28C13.39 6.28 13.36 6.28 13.27 6.28L12.7 6.28C12.29 6.28 11.95 5.94 11.95 5.53Z" fill="#359740" fill-opacity="1.000000" fill-rule="evenodd"/>
  </symbol>

  <symbol id="icon-email" viewBox="0 0 24 24">
    <path d="M17.06 3.08C16.7 3.63 16.49 4.29 16.49 5C16.49 6.2 17.11 7.27 18.03 7.89C16.61 9.32 15.54 10.36 14.6 11.08C13.58 11.86 12.8 12.17 11.99 12.17C11.19 12.17 10.41 11.86 9.39 11.08C8.34 10.28 7.14 9.08 5.45 7.39L3.51 5.45L3.1 5.09L2.99 5C3.3 4.57 3.63 4.26 4.06 3.95C5.37 3 7.25 3 10.99 3L12.99 3C14.7 3 16.01 3 17.06 3.08ZM21.99 5C21.99 6.1 21.1 7 19.99 7C18.89 7 17.99 6.1 17.99 5C17.99 3.89 18.89 3 19.99 3C21.1 3 21.99 3.89 21.99 5ZM19.56 8.49L19.58 8.47C19.61 8.47 19.65 8.48 19.68 8.48C19.78 8.49 19.89 8.5 19.99 8.5L20.01 8.49C20.06 8.49 20.12 8.49 20.17 8.49C20.81 8.46 21.4 8.26 21.91 7.93C21.99 8.98 21.99 10.29 21.99 12C21.99 15.74 21.99 17.62 21.04 18.93C20.73 19.36 20.36 19.73 19.93 20.04C18.62 21 16.74 21 12.99 21L10.99 21C7.25 21 5.37 21 4.06 20.04C3.63 19.73 3.26 19.36 2.95 18.93C1.99 17.62 1.99 15.74 1.99 12C1.99 9.36 1.99 7.64 2.33 6.4L2.48 6.54L4.43 8.49C6.07 10.13 7.35 11.41 8.48 12.27C9.64 13.15 10.73 13.67 11.99 13.67C13.26 13.67 14.35 13.15 15.51 12.27C16.64 11.41 17.92 10.13 19.56 8.49Z" fill="#359740" fill-opacity="1.000000" fill-rule="evenodd"/>
  </symbol>

  <symbol id="icon-upload" viewBox="0 0 24 24">
    <path d="M14.11 7.24C15.67 7.24 17.24 7.24 18.8 7.24C19.39 7.24 19.85 7.61 19.99 8.22C20.02 8.35 20.04 8.48 20.04 8.62C20.04 11.24 20.04 13.87 20.04 16.5C20.04 16.68 20.02 16.87 19.96 17.04C19.9 17.21 19.81 17.36 19.69 17.49C19.57 17.62 19.43 17.72 19.28 17.79C19.13 17.86 18.96 17.89 18.8 17.88C15.67 17.88 12.54 17.88 9.41 17.88C9.25 17.88 9.08 17.85 8.93 17.79C8.78 17.72 8.64 17.62 8.53 17.49C8.41 17.36 8.32 17.21 8.26 17.04C8.2 16.87 8.17 16.69 8.18 16.5C8.18 15.74 8.18 14.97 8.18 14.2C8.18 12.35 8.18 10.5 8.18 8.65C8.18 7.94 8.55 7.4 9.15 7.27C9.26 7.25 9.36 7.24 9.47 7.24L14.11 7.24ZM8.78 16.03L8.82 16.05C8.85 16 8.89 15.95 8.93 15.91C9.64 15.1 10.35 14.3 11.07 13.51C11.15 13.4 11.26 13.32 11.37 13.26C11.49 13.21 11.61 13.18 11.73 13.18C11.86 13.18 11.98 13.21 12.1 13.26C12.21 13.32 12.32 13.4 12.4 13.51L13.12 14.3C13.15 14.33 13.18 14.35 13.2 14.38L13.3 14.26C14.02 13.29 14.73 12.33 15.45 11.37C15.55 11.23 15.67 11.12 15.81 11.03C16.2 10.81 16.6 10.94 16.91 11.34C17.72 12.39 18.52 13.44 19.32 14.49C19.35 14.53 19.38 14.57 19.44 14.65L19.44 14.45C19.44 12.53 19.44 10.61 19.44 8.69C19.44 8.16 19.21 7.91 18.74 7.91C15.65 7.91 12.55 7.91 9.46 7.91C9.37 7.9 9.27 7.92 9.19 7.95C9.1 7.99 9.02 8.05 8.95 8.12C8.89 8.19 8.84 8.28 8.8 8.38C8.77 8.48 8.76 8.58 8.76 8.69C8.78 11.08 8.76 13.47 8.76 15.87L8.78 16.03ZM8.87 16.91C8.93 17.01 9.02 17.1 9.12 17.15C9.22 17.2 9.33 17.23 9.45 17.22C10.86 17.22 12.27 17.22 13.68 17.22L18.75 17.22C19.22 17.22 19.45 16.96 19.45 16.43C19.45 16.23 19.46 16.03 19.45 15.84C19.45 15.74 19.41 15.64 19.36 15.57C18.4 14.3 17.44 13.04 16.47 11.79C16.27 11.53 16.09 11.53 15.9 11.8C15.1 12.88 14.3 13.95 13.5 15.03C13.31 15.28 13.15 15.28 12.95 15.06L12 13.99C11.82 13.79 11.66 13.78 11.48 13.99L10.42 15.17L8.87 16.91Z" fill="#000000" fill-opacity="1.000000" fill-rule="nonzero"/>
		<path d="M16.04 21.87C15.88 21.82 15.6 21.75 15.33 21.67L6.74 19.09C6.58 19.05 6.43 18.97 6.3 18.86C6.17 18.75 6.05 18.61 5.97 18.45C5.89 18.29 5.84 18.12 5.82 17.93C5.8 17.75 5.81 17.56 5.86 17.39C6.23 15.82 6.61 14.25 6.99 12.68C7.03 12.48 7.12 12.38 7.26 12.36C7.31 12.36 7.36 12.37 7.41 12.39C7.46 12.41 7.5 12.45 7.53 12.49C7.56 12.54 7.58 12.59 7.58 12.65C7.59 12.7 7.59 12.76 7.57 12.81C7.4 13.54 7.22 14.27 7.05 15C6.84 15.85 6.64 16.7 6.44 17.54C6.33 17.99 6.5 18.32 6.9 18.44C9.91 19.35 12.91 20.25 15.92 21.16C16.36 21.29 16.63 21.11 16.75 20.62C16.89 20.03 17.04 19.43 17.18 18.85C17.24 18.61 17.4 18.5 17.58 18.58C17.74 18.64 17.8 18.81 17.75 19.03C17.64 19.5 17.52 19.97 17.41 20.44C17.37 20.61 17.33 20.78 17.29 20.95C17.13 21.5 16.67 21.87 16.04 21.87Z" fill="#000000" fill-opacity="1.000000" fill-rule="nonzero"/>
		<path d="M11.14 9.24C11.38 9.24 11.6 9.32 11.8 9.47C11.99 9.61 12.14 9.82 12.23 10.06C12.32 10.31 12.35 10.57 12.3 10.83C12.25 11.09 12.14 11.33 11.97 11.51C11.81 11.7 11.59 11.82 11.36 11.87C11.13 11.92 10.9 11.89 10.68 11.79C10.46 11.69 10.28 11.52 10.15 11.3C10.02 11.08 9.95 10.83 9.95 10.56C9.96 10.21 10.08 9.88 10.3 9.63C10.53 9.38 10.83 9.24 11.14 9.24ZM11.73 10.56C11.73 10.43 11.69 10.31 11.63 10.2C11.56 10.09 11.47 10.01 11.36 9.96C11.25 9.91 11.13 9.9 11.02 9.92C10.91 9.95 10.8 10.01 10.72 10.11C10.64 10.2 10.58 10.32 10.56 10.45C10.54 10.58 10.55 10.71 10.6 10.83C10.64 10.95 10.72 11.05 10.82 11.12C10.91 11.2 11.03 11.23 11.14 11.23C11.22 11.23 11.3 11.21 11.37 11.18C11.44 11.15 11.51 11.1 11.56 11.04C11.62 10.97 11.66 10.9 11.69 10.82C11.72 10.74 11.73 10.65 11.73 10.56L11.73 10.56Z" fill="#000000" fill-opacity="1.000000" fill-rule="nonzero"/>
  </symbol>

  <symbol id="icon-star" viewBox="0 0 24 24">
    <path d="M22 10.1C22.1 9.59 21.7 8.99 21.2 8.99L15.5 8.19L12.9 2.99C12.8 2.79 12.7 2.69 12.5 2.59C12 2.29 11.4 2.49 11.1 2.99L8.59 8.19L2.9 8.99C2.59 8.99 2.4 9.09 2.3 9.29C1.9 9.69 1.9 10.29 2.3 10.7L6.4 14.7L5.4 20.39C5.4 20.6 5.4 20.79 5.5 21C5.8 21.5 6.4 21.7 6.9 21.39L12 18.7L17.1 21.39C17.2 21.5 17.4 21.5 17.6 21.5C17.7 21.5 17.7 21.5 17.79 21.5C18.29 21.39 18.7 20.89 18.6 20.29L17.6 14.6L21.7 10.6C21.9 10.49 22 10.29 22 10.1Z" fill="#FFCF55" fill-opacity="1.000000" fill-rule="nonzero"/>
  </symbol>

  <symbol id="icon-star-half" viewBox="0 0 24 24">
    <path d="M22 10.1C22.1 9.59 21.7 8.99 21.2 8.99L15.5 8.19L12.9 2.99C12.8 2.79 12.7 2.69 12.5 2.59C12 2.29 11.4 2.49 11.1 2.99L8.59 8.19L2.9 8.99C2.59 8.99 2.4 9.09 2.3 9.29C1.9 9.69 1.9 10.29 2.3 10.7L6.4 14.7L5.4 20.39C5.4 20.6 5.4 20.79 5.5 21C5.8 21.5 6.4 21.7 6.9 21.39L12 18.7L17.1 21.39C17.2 21.5 17.4 21.5 17.6 21.5C17.7 21.5 17.7 21.5 17.79 21.5C18.29 21.39 18.7 20.89 18.6 20.29L17.6 14.6L21.7 10.6C21.9 10.49 22 10.29 22 10.1ZM15.8 13.6C15.6 13.79 15.5 14.2 15.5 14.49L16.2 18.7L12.4 16.7C12.3 16.6 12.1 16.6 11.9 16.6L11.9 5.69L13.8 9.49C13.9 9.79 14.2 9.99 14.6 9.99L18.79 10.6L15.8 13.6Z" fill="#FFCF55" fill-opacity="1.000000" fill-rule="nonzero"/>
  </symbol>

  <symbol id="icon-expand" viewBox="0 0 24 24">
    <path d="M7 10L12 15L17 10" stroke="#242328" stroke-opacity="1.000000" stroke-width="2.000000" stroke-linejoin="round" stroke-linecap="round"/>
  </symbol>

  <symbol id="icon-collapse" viewBox="0 0 24 24">
    <path d="M17 14L12 9L7 14" stroke="#4FA083" stroke-opacity="1.000000" stroke-width="2.000000" stroke-linejoin="round" stroke-linecap="round"/>
  </symbol>
</svg>
