<svg width="24.000000" height="24.000000" viewBox="0 0 24 24" fill="none" xmlns="http://www.w3.org/2000/svg" xmlns:xlink="http://www.w3.org/1999/xlink">
	<desc>
			Created with Pixso.
	</desc>
	<defs>
		<clipPath id="clip7_426">
			<rect id="clock-three" width="24.000000" height="24.000000" fill="white" fill-opacity="0"/>
		</clipPath>
	</defs>
	<rect id="clock-three" width="24.000000" height="24.000000" fill="#FFFFFF" fill-opacity="0"/>
	<g clip-path="url(#clip7_426)">
		<path id="Vector" d="M12 3C7.04 3 3 7.05 3 12C3 16.95 7.04 21 12 21C16.95 21 21 16.95 21 12C21 7.05 16.95 3 12 3ZM14.7 12.9L12 12.9C11.46 12.9 11.1 12.54 11.1 12L11.1 7.5C11.1 6.95 11.46 6.59 12 6.59C12.54 6.59 12.9 6.95 12.9 7.5L12.9 11.1L14.7 11.1C15.24 11.1 15.6 11.46 15.6 12C15.6 12.54 15.24 12.9 14.7 12.9Z" fill="#70737C" fill-opacity="1.000000" fill-rule="nonzero"/>
	</g>
</svg>
