<svg width="24.000000" height="24.000000" viewBox="0 0 24 24" fill="none" xmlns="http://www.w3.org/2000/svg" xmlns:xlink="http://www.w3.org/1999/xlink">
	<desc>
			Created with Pixso.
	</desc>
	<defs/>
	<rect id="akar-icons:facebook-fill" width="24.000000" height="24.000000" fill="#FFFFFF" fill-opacity="0"/>
	<path id="Vector" d="M2 12.05C2 17.02 5.61 21.16 10.33 22L10.33 14.77L7.83 14.77L7.83 12L10.33 12L10.33 9.77C10.33 7.27 11.94 5.88 14.22 5.88C14.94 5.88 15.72 6 16.44 6.11L16.44 8.66L15.16 8.66C13.94 8.66 13.66 9.27 13.66 10.05L13.66 12L16.33 12L15.88 14.77L13.66 14.77L13.66 22C18.38 21.16 22 17.02 22 12.05C22 6.52 17.5 2 12 2C6.5 2 2 6.52 2 12.05Z" fill="#70737C" fill-opacity="1.000000" fill-rule="evenodd"/>
</svg>
