<svg width="24.000000" height="24.000000" viewBox="0 0 24 24" fill="none" xmlns="http://www.w3.org/2000/svg" xmlns:xlink="http://www.w3.org/1999/xlink">
	<desc>
			Created with Pixso.
	</desc>
	<defs/>
	<rect id="icon_cart_simple" width="24.000000" height="24.000000" fill="#FFFFFF" fill-opacity="0"/>
	<path id="Vector" d="M10.38 19.83C10.38 20.66 9.71 21.33 8.88 21.33C8.05 21.33 7.38 20.66 7.38 19.83C7.38 19 8.05 18.33 8.88 18.33C9.71 18.33 10.38 19 10.38 19.83Z" fill="#FFFFFF" fill-opacity="1.000000" fill-rule="evenodd"/>
	<path id="Vector" d="M19.5 19.83C19.5 20.66 18.82 21.33 18 21.33C17.17 21.33 16.5 20.66 16.5 19.83C16.5 19 17.17 18.33 18 18.33C18.82 18.33 19.5 19 19.5 19.83Z" fill="#FFFFFF" fill-opacity="1.000000" fill-rule="evenodd"/>
	<path id="Vector" d="M22.05 3.58C21.99 3.5 21.91 3.44 21.82 3.39C21.73 3.35 21.63 3.33 21.54 3.33L7.66 3.33L8.09 4.66L20.66 4.66L18.88 12.66L8.88 12.66L5.84 3.02C5.8 2.91 5.74 2.82 5.67 2.74C5.59 2.67 5.5 2.61 5.4 2.58L2.66 1.74C2.58 1.72 2.49 1.71 2.4 1.72C2.31 1.72 2.23 1.75 2.15 1.79C1.99 1.87 1.88 2.02 1.83 2.19C1.77 2.35 1.79 2.54 1.87 2.7C1.96 2.85 2.1 2.97 2.27 3.02L4.66 3.76L7.72 13.42L6.63 14.32L6.54 14.4C6.27 14.71 6.12 15.11 6.11 15.52C6.1 15.93 6.23 16.34 6.49 16.66C6.67 16.88 6.9 17.06 7.16 17.17C7.42 17.29 7.71 17.34 8 17.33L19.12 17.33C19.3 17.33 19.47 17.26 19.59 17.13C19.72 17.01 19.79 16.84 19.79 16.66C19.79 16.48 19.72 16.32 19.59 16.19C19.47 16.07 19.3 16 19.12 16L7.89 16C7.81 15.99 7.74 15.97 7.67 15.93C7.61 15.89 7.55 15.83 7.51 15.77C7.48 15.7 7.46 15.62 7.46 15.55C7.46 15.47 7.48 15.4 7.52 15.33L9.12 14L19.42 14C19.57 14 19.72 13.95 19.84 13.85C19.96 13.76 20.05 13.63 20.08 13.48L22.2 4.14C22.22 4.04 22.21 3.94 22.19 3.84C22.16 3.74 22.11 3.65 22.05 3.58Z" fill="#FFFFFF" fill-opacity="1.000000" fill-rule="nonzero"/>
</svg>
