<svg width="24.000000" height="24.000000" viewBox="0 0 24 24" fill="none" xmlns="http://www.w3.org/2000/svg" xmlns:xlink="http://www.w3.org/1999/xlink">
	<desc>
			Created with Pixso.
	</desc>
	<defs>
		<clipPath id="clip23_1602">
			<rect id="ant-design:fire-filled" width="24.000000" height="24.000000" fill="white" fill-opacity="0"/>
		</clipPath>
	</defs>
	<rect id="ant-design:fire-filled" width="24.000000" height="24.000000" fill="#FFFFFF" fill-opacity="0"/>
	<g clip-path="url(#clip23_1602)">
		<path id="Vector" d="M18.92 11.36C18.52 10.45 17.93 9.64 17.2 8.98L16.6 8.43C16.58 8.41 16.56 8.4 16.53 8.39C16.5 8.38 16.48 8.38 16.45 8.39C16.42 8.4 16.4 8.41 16.38 8.43C16.36 8.45 16.34 8.47 16.33 8.49L16.07 9.26C15.9 9.75 15.59 10.24 15.16 10.73C15.13 10.76 15.09 10.77 15.07 10.77C15.05 10.77 15.01 10.77 14.98 10.74C14.95 10.71 14.94 10.68 14.94 10.64C15.02 9.39 14.65 7.99 13.83 6.47C13.16 5.2 12.22 4.21 11.05 3.52L10.2 3.02C10.09 2.95 9.95 3.04 9.95 3.17L10 4.16C10.03 4.84 9.95 5.44 9.77 5.93C9.54 6.54 9.21 7.11 8.79 7.62C8.5 7.97 8.18 8.29 7.81 8.57C6.94 9.24 6.23 10.1 5.74 11.08C5.25 12.07 5 13.16 5 14.26C5 15.24 5.19 16.18 5.57 17.07C5.93 17.93 6.46 18.71 7.13 19.36C7.8 20.02 8.57 20.54 9.44 20.91C10.33 21.28 11.28 21.47 12.26 21.47C13.25 21.47 14.2 21.28 15.09 20.91C15.95 20.55 16.74 20.02 17.4 19.37C18.07 18.7 18.6 17.93 18.96 17.08C19.34 16.19 19.54 15.23 19.53 14.27C19.53 13.26 19.33 12.28 18.92 11.36Z" fill="#E55C5C" fill-opacity="1.000000" fill-rule="nonzero"/>
	</g>
</svg>
