<svg width="24.000000" height="24.000000" viewBox="0 0 24 24" fill="none" xmlns="http://www.w3.org/2000/svg" xmlns:xlink="http://www.w3.org/1999/xlink">
	<desc>
			Created with Pixso.
	</desc>
	<defs>
		<clipPath id="clip2_79">
			<rect id="icon_search" width="24.000000" height="24.000000" fill="white" fill-opacity="0"/>
		</clipPath>
	</defs>
	<rect id="icon_search" width="24.000000" height="24.000000" fill="#FFFFFF" fill-opacity="0"/>
	<g clip-path="url(#clip2_79)">
		<path id="Vector" d="M19.77 18.65L16.8 15.7C17.96 14.26 18.51 12.44 18.36 10.61C18.21 8.77 17.36 7.06 15.99 5.83C14.62 4.6 12.83 3.95 10.99 4C9.15 4.05 7.4 4.8 6.1 6.1C4.8 7.41 4.05 9.16 4 11C3.95 12.84 4.6 14.63 5.83 16C7.06 17.37 8.77 18.22 10.6 18.37C12.43 18.52 14.26 17.97 15.69 16.81L18.64 19.76C18.71 19.83 18.8 19.89 18.9 19.93C18.99 19.97 19.1 20 19.2 20C19.31 20 19.41 19.97 19.51 19.93C19.61 19.89 19.7 19.83 19.77 19.76C19.91 19.61 20 19.41 20 19.2C20 18.99 19.91 18.8 19.77 18.65ZM11.21 16.81C10.1 16.81 9.02 16.49 8.1 15.87C7.18 15.25 6.46 14.38 6.04 13.36C5.61 12.33 5.5 11.21 5.72 10.12C5.93 9.03 6.47 8.04 7.25 7.25C8.03 6.47 9.03 5.94 10.12 5.72C11.2 5.5 12.33 5.61 13.35 6.04C14.37 6.46 15.25 7.18 15.86 8.1C16.48 9.02 16.8 10.11 16.8 11.21C16.8 12.7 16.21 14.12 15.16 15.17C14.12 16.22 12.69 16.81 11.21 16.81Z" fill="#70737C" fill-opacity="1.000000" fill-rule="nonzero"/>
	</g>
</svg>
