<svg width="24.000000" height="24.000000" viewBox="0 0 24 24" fill="none" xmlns="http://www.w3.org/2000/svg" xmlns:xlink="http://www.w3.org/1999/xlink">
	<desc>
			Created with Pixso.
	</desc>
	<defs>
		<clipPath id="clip23_2360">
			<rect id="Hicon / Bold / Menu" width="24.000000" height="24.000000" fill="white" fill-opacity="0"/>
		</clipPath>
	</defs>
	<g clip-path="url(#clip23_2360)">
		<path id="Vector" d="M13 5.25C12.58 5.25 12.25 5.58 12.25 6C12.25 6.41 12.58 6.75 13 6.75L19 6.75C19.41 6.75 19.75 6.41 19.75 6C19.75 5.58 19.41 5.25 19 5.25L13 5.25ZM5 11.25C4.58 11.25 4.25 11.58 4.25 12C4.25 12.41 4.58 12.75 5 12.75L19 12.75C19.41 12.75 19.75 12.41 19.75 12C19.75 11.58 19.41 11.25 19 11.25L5 11.25ZM8.25 18C8.25 17.58 8.58 17.25 9 17.25L19 17.25C19.41 17.25 19.75 17.58 19.75 18C19.75 18.41 19.41 18.75 19 18.75L9 18.75C8.58 18.75 8.25 18.41 8.25 18Z" fill="#70737C" fill-opacity="1.000000" fill-rule="evenodd"/>
	</g>
</svg>
