<svg width="24.000000" height="24.000000" viewBox="0 0 24 24" fill="none" xmlns="http://www.w3.org/2000/svg" xmlns:xlink="http://www.w3.org/1999/xlink">
	<desc>
			Created with Pixso.
	</desc>
	<defs>
		<clipPath id="clip20_520">
			<rect id="heart / 24 / Outline" width="24.000000" height="24.000000" fill="white" fill-opacity="0"/>
		</clipPath>
	</defs>
	<rect id="heart / 24 / Outline" width="24.000000" height="24.000000" fill="#FFFFFF" fill-opacity="0"/>
	<g clip-path="url(#clip20_520)">
		<path id="Vector 6" d="M12 7C13.5 6 16.9 4.59 18.5 7C20.5 10 21 11.5 13.5 18.5L11.5 20.5L4 13.5L3 8.5L6.5 6L9.5 6L11.5 7L12 7Z" fill="#FFCF55" fill-opacity="1.000000" fill-rule="evenodd"/>
		<path id="Vector" d="M19.65 5.8C18.62 4.78 17.26 4.16 15.8 4.04C14.35 3.93 12.9 4.33 11.72 5.18C10.49 4.28 8.95 3.86 7.42 4.03C5.89 4.2 4.48 4.93 3.47 6.08C2.46 7.24 1.94 8.72 2 10.24C2.06 11.76 2.7 13.2 3.79 14.27L9.83 20.23C10.33 20.72 11.01 21 11.72 21C12.43 21 13.11 20.72 13.62 20.23L19.65 14.27C20.79 13.14 21.42 11.62 21.42 10.03C21.42 8.44 20.79 6.92 19.65 5.8ZM18.28 12.95L12.25 18.9C12.18 18.97 12.1 19.02 12.01 19.06C11.92 19.09 11.82 19.11 11.72 19.11C11.63 19.11 11.53 19.09 11.44 19.06C11.35 19.02 11.27 18.97 11.2 18.9L5.16 12.92C4.4 12.15 3.98 11.12 3.98 10.04C3.98 8.97 4.4 7.93 5.16 7.17C5.94 6.41 6.99 5.99 8.08 5.99C9.17 5.99 10.22 6.41 10.99 7.17C11.09 7.26 11.19 7.33 11.31 7.38C11.43 7.42 11.56 7.45 11.68 7.45C11.81 7.45 11.94 7.42 12.06 7.38C12.18 7.33 12.28 7.26 12.37 7.17C13.15 6.41 14.2 5.99 15.29 5.99C16.38 5.99 17.43 6.41 18.2 7.17C18.98 7.92 19.42 8.95 19.43 10.03C19.45 11.1 19.03 12.14 18.28 12.92L18.28 12.95Z" fill="#FFCF55" fill-opacity="1.000000" fill-rule="nonzero"/>
	</g>
</svg>
