<svg width="24.000000" height="24.000000" viewBox="0 0 24 24" fill="none" xmlns="http://www.w3.org/2000/svg" xmlns:xlink="http://www.w3.org/1999/xlink">
	<desc>
			Created with Pixso.
	</desc>
	<defs>
		<clipPath id="clip16402_778">
			<rect id="Hicon / Bold / Message 37" width="24.000000" height="24.000000" fill="white" fill-opacity="0"/>
		</clipPath>
	</defs>
	<g clip-path="url(#clip16402_778)">
		<path id="Vector" d="M17.06 3.08C16.7 3.63 16.49 4.29 16.49 5C16.49 6.2 17.11 7.27 18.03 7.89C16.61 9.32 15.54 10.36 14.6 11.08C13.58 11.86 12.8 12.17 11.99 12.17C11.19 12.17 10.41 11.86 9.39 11.08C8.34 10.28 7.14 9.08 5.45 7.39L3.51 5.45L3.1 5.09L2.99 5C3.3 4.57 3.63 4.26 4.06 3.95C5.37 3 7.25 3 10.99 3L12.99 3C14.7 3 16.01 3 17.06 3.08ZM21.99 5C21.99 6.1 21.1 7 19.99 7C18.89 7 17.99 6.1 17.99 5C17.99 3.89 18.89 3 19.99 3C21.1 3 21.99 3.89 21.99 5ZM19.56 8.49L19.58 8.47C19.61 8.47 19.65 8.48 19.68 8.48C19.78 8.49 19.89 8.5 19.99 8.5L20.01 8.49C20.06 8.49 20.12 8.49 20.17 8.49C20.81 8.46 21.4 8.26 21.91 7.93C21.99 8.98 21.99 10.29 21.99 12C21.99 15.74 21.99 17.62 21.04 18.93C20.73 19.36 20.36 19.73 19.93 20.04C18.62 21 16.74 21 12.99 21L10.99 21C7.25 21 5.37 21 4.06 20.04C3.63 19.73 3.26 19.36 2.95 18.93C1.99 17.62 1.99 15.74 1.99 12C1.99 9.36 1.99 7.64 2.33 6.4L2.48 6.54L4.43 8.49C6.07 10.13 7.35 11.41 8.48 12.27C9.64 13.15 10.73 13.67 11.99 13.67C13.26 13.67 14.35 13.15 15.51 12.27C16.64 11.41 17.92 10.13 19.56 8.49Z" fill="#359740" fill-opacity="1.000000" fill-rule="evenodd"/>
	</g>
</svg>
