<svg width="24.000000" height="24.000000" viewBox="0 0 24 24" fill="none" xmlns="http://www.w3.org/2000/svg" xmlns:xlink="http://www.w3.org/1999/xlink">
	<desc>
			Created with Pixso.
	</desc>
	<defs/>
	<rect id="ant-design:instagram-filled" width="24.000000" height="24.000000" fill="#FFFFFF" fill-opacity="0"/>
	<path id="Vector" d="M12 8.87C10.27 8.87 8.87 10.27 8.87 12C8.87 13.72 10.27 15.12 12 15.12C13.72 15.12 15.12 13.72 15.12 12C15.12 10.27 13.72 8.87 12 8.87ZM21.37 12C21.37 10.7 21.38 9.42 21.3 8.13C21.23 6.63 20.89 5.3 19.79 4.2C18.69 3.1 17.36 2.76 15.86 2.69C14.57 2.62 13.29 2.63 12 2.63C10.7 2.63 9.42 2.62 8.13 2.69C6.63 2.76 5.3 3.1 4.2 4.2C3.1 5.3 2.76 6.63 2.69 8.13C2.62 9.42 2.63 10.7 2.63 12C2.63 13.29 2.62 14.57 2.69 15.86C2.76 17.36 3.11 18.69 4.2 19.79C5.3 20.89 6.63 21.23 8.13 21.3C9.42 21.37 10.71 21.36 12 21.36C13.29 21.36 14.57 21.37 15.86 21.3C17.36 21.23 18.7 20.89 19.79 19.79C20.89 18.69 21.23 17.36 21.3 15.86C21.38 14.57 21.37 13.29 21.37 12ZM12 16.8C9.33 16.8 7.19 14.66 7.19 12C7.19 9.33 9.33 7.19 12 7.19C14.66 7.19 16.8 9.33 16.8 12C16.8 14.66 14.66 16.8 12 16.8ZM17 8.11C16.38 8.11 15.88 7.61 15.88 6.99C15.88 6.37 16.38 5.87 17 5.87C17.62 5.87 18.12 6.37 18.12 6.99C18.12 7.14 18.09 7.28 18.04 7.42C17.98 7.56 17.9 7.68 17.79 7.79C17.69 7.89 17.57 7.97 17.43 8.03C17.29 8.09 17.15 8.11 17 8.11Z" fill="#70737C" fill-opacity="1.000000" fill-rule="nonzero"/>
</svg>
