<svg width="24.000000" height="24.000000" viewBox="0 0 24 24" fill="none" xmlns="http://www.w3.org/2000/svg" xmlns:xlink="http://www.w3.org/1999/xlink">
	<desc>
			Created with Pixso.
	</desc>
	<defs>
		<clipPath id="clip16402_773">
			<rect id="Hicon / Bold / Calling 1" width="24.000000" height="24.000000" fill="white" fill-opacity="0"/>
		</clipPath>
	</defs>
	<g clip-path="url(#clip16402_773)">
		<path id="Vector" d="M12.99 2.75C13.85 2.75 14.23 2.75 14.54 2.77C18.03 3.09 20.8 5.86 21.12 9.35C21.14 9.66 21.14 10.04 21.14 10.9L21.14 11.89C21.14 12.31 21.48 12.64 21.89 12.64C22.31 12.64 22.64 12.31 22.64 11.89L22.64 10.85C22.64 10.06 22.64 9.6 22.61 9.21C22.23 5 18.89 1.66 14.67 1.28C14.29 1.24 13.83 1.25 13.04 1.25L12 1.25C11.58 1.25 11.25 1.58 11.25 2C11.25 2.41 11.58 2.75 12 2.75L12.99 2.75ZM7.11 4.02C6.05 3.05 4.44 3.05 3.39 4.02C3.34 4.06 3.3 4.11 3.24 4.17L2.34 5.06C1.44 5.97 1.06 7.27 1.33 8.51C2.91 15.59 8.43 21.11 15.5 22.69C16.75 22.96 18.05 22.58 18.96 21.68L19.85 20.78C19.91 20.72 19.96 20.68 20 20.63C20.97 19.58 20.97 17.96 20 16.91C19.96 16.87 19.91 16.82 19.85 16.76L18.38 15.29C17.36 14.27 15.82 13.98 14.5 14.56C13.74 14.89 12.86 14.72 12.28 14.14L9.88 11.74C9.3 11.16 9.13 10.28 9.46 9.52C10.04 8.2 9.75 6.66 8.72 5.63L7.26 4.17C7.2 4.11 7.15 4.06 7.11 4.02ZM11.95 5.53C11.95 5.12 12.29 4.78 12.7 4.78L13.28 4.78C13.35 4.78 13.4 4.78 13.44 4.78C16.55 4.83 19.06 7.34 19.11 10.45C19.11 10.49 19.11 10.54 19.11 10.61L19.11 11.19C19.11 11.6 18.77 11.94 18.36 11.94C17.94 11.94 17.61 11.6 17.61 11.19L17.61 10.62C17.61 10.53 17.61 10.5 17.61 10.47C17.58 8.17 15.72 6.31 13.42 6.28C13.39 6.28 13.36 6.28 13.27 6.28L12.7 6.28C12.29 6.28 11.95 5.94 11.95 5.53Z" fill="#359740" fill-opacity="1.000000" fill-rule="evenodd"/>
	</g>
</svg>
