<svg width="24.000000" height="24.000000" viewBox="0 0 24 24" fill="none" xmlns="http://www.w3.org/2000/svg" xmlns:xlink="http://www.w3.org/1999/xlink">
	<desc>
			Created with Pixso.
	</desc>
	<defs>
		<clipPath id="clip7_33">
			<rect id="star" width="24.000000" height="24.000000" fill="white" fill-opacity="0"/>
		</clipPath>
	</defs>
	<rect id="star" width="24.000000" height="24.000000" fill="#FFFFFF" fill-opacity="0"/>
	<g clip-path="url(#clip7_33)">
		<path id="Vector" d="M22 10.1C22.1 9.59 21.7 8.99 21.2 8.99L15.5 8.19L12.9 2.99C12.8 2.79 12.7 2.69 12.5 2.59C12 2.29 11.4 2.49 11.1 2.99L8.59 8.19L2.9 8.99C2.59 8.99 2.4 9.09 2.3 9.29C1.9 9.69 1.9 10.29 2.3 10.7L6.4 14.7L5.4 20.39C5.4 20.6 5.4 20.79 5.5 21C5.8 21.5 6.4 21.7 6.9 21.39L12 18.7L17.1 21.39C17.2 21.5 17.4 21.5 17.6 21.5C17.7 21.5 17.7 21.5 17.79 21.5C18.29 21.39 18.7 20.89 18.6 20.29L17.6 14.6L21.7 10.6C21.9 10.49 22 10.29 22 10.1Z" fill="#FFCF55" fill-opacity="1.000000" fill-rule="nonzero"/>
	</g>
</svg>
