<svg width="25.863525" height="29.000000" viewBox="0 0 25.8635 29" fill="none" xmlns="http://www.w3.org/2000/svg" xmlns:xlink="http://www.w3.org/1999/xlink">
	<desc>
			Created with Pixso.
	</desc>
	<defs>
		<clipPath id="clip16403_871">
			<rect id="image 9" width="14.224912" height="14.622300" transform="translate(5.819336 7.250000)" fill="white" fill-opacity="0"/>
		</clipPath>
	</defs>
	<rect id="image 9" width="14.224912" height="14.622300" transform="translate(5.819336 7.250000)" fill="#FFFFFF" fill-opacity="0"/>
	<g clip-path="url(#clip16403_871)">
		<path id="Vector" d="M14.11 7.24C15.67 7.24 17.24 7.24 18.8 7.24C19.39 7.24 19.85 7.61 19.99 8.22C20.02 8.35 20.04 8.48 20.04 8.62C20.04 11.24 20.04 13.87 20.04 16.5C20.04 16.68 20.02 16.87 19.96 17.04C19.9 17.21 19.81 17.36 19.69 17.49C19.57 17.62 19.43 17.72 19.28 17.79C19.13 17.86 18.96 17.89 18.8 17.88C15.67 17.88 12.54 17.88 9.41 17.88C9.25 17.88 9.08 17.85 8.93 17.79C8.78 17.72 8.64 17.62 8.53 17.49C8.41 17.36 8.32 17.21 8.26 17.04C8.2 16.87 8.17 16.69 8.18 16.5C8.18 15.74 8.18 14.97 8.18 14.2C8.18 12.35 8.18 10.5 8.18 8.65C8.18 7.94 8.55 7.4 9.15 7.27C9.26 7.25 9.36 7.24 9.47 7.24L14.11 7.24ZM8.78 16.03L8.82 16.05C8.85 16 8.89 15.95 8.93 15.91C9.64 15.1 10.35 14.3 11.07 13.51C11.15 13.4 11.26 13.32 11.37 13.26C11.49 13.21 11.61 13.18 11.73 13.18C11.86 13.18 11.98 13.21 12.1 13.26C12.21 13.32 12.32 13.4 12.4 13.51L13.12 14.3C13.15 14.33 13.18 14.35 13.2 14.38L13.3 14.26C14.02 13.29 14.73 12.33 15.45 11.37C15.55 11.23 15.67 11.12 15.81 11.03C16.2 10.81 16.6 10.94 16.91 11.34C17.72 12.39 18.52 13.44 19.32 14.49C19.35 14.53 19.38 14.57 19.44 14.65L19.44 14.45C19.44 12.53 19.44 10.61 19.44 8.69C19.44 8.16 19.21 7.91 18.74 7.91C15.65 7.91 12.55 7.91 9.46 7.91C9.37 7.9 9.27 7.92 9.19 7.95C9.1 7.99 9.02 8.05 8.95 8.12C8.89 8.19 8.84 8.28 8.8 8.38C8.77 8.48 8.76 8.58 8.76 8.69C8.78 11.08 8.76 13.47 8.76 15.87L8.78 16.03ZM8.87 16.91C8.93 17.01 9.02 17.1 9.12 17.15C9.22 17.2 9.33 17.23 9.45 17.22C10.86 17.22 12.27 17.22 13.68 17.22L18.75 17.22C19.22 17.22 19.45 16.96 19.45 16.43C19.45 16.23 19.46 16.03 19.45 15.84C19.45 15.74 19.41 15.64 19.36 15.57C18.4 14.3 17.44 13.04 16.47 11.79C16.27 11.53 16.09 11.53 15.9 11.8C15.1 12.88 14.3 13.95 13.5 15.03C13.31 15.28 13.15 15.28 12.95 15.06L12 13.99C11.82 13.79 11.66 13.78 11.48 13.99L10.42 15.17L8.87 16.91Z" fill="#000000" fill-opacity="1.000000" fill-rule="nonzero"/>
		<path id="Vector" d="M16.04 21.87C15.88 21.82 15.6 21.75 15.33 21.67L6.74 19.09C6.58 19.05 6.43 18.97 6.3 18.86C6.17 18.75 6.05 18.61 5.97 18.45C5.89 18.29 5.84 18.12 5.82 17.93C5.8 17.75 5.81 17.56 5.86 17.39C6.23 15.82 6.61 14.25 6.99 12.68C7.03 12.48 7.12 12.38 7.26 12.36C7.31 12.36 7.36 12.37 7.41 12.39C7.46 12.41 7.5 12.45 7.53 12.49C7.56 12.54 7.58 12.59 7.58 12.65C7.59 12.7 7.59 12.76 7.57 12.81C7.4 13.54 7.22 14.27 7.05 15C6.84 15.85 6.64 16.7 6.44 17.54C6.33 17.99 6.5 18.32 6.9 18.44C9.91 19.35 12.91 20.25 15.92 21.16C16.36 21.29 16.63 21.11 16.75 20.62C16.89 20.03 17.04 19.43 17.18 18.85C17.24 18.61 17.4 18.5 17.58 18.58C17.74 18.64 17.8 18.81 17.75 19.03C17.64 19.5 17.52 19.97 17.41 20.44C17.37 20.61 17.33 20.78 17.29 20.95C17.13 21.5 16.67 21.87 16.04 21.87Z" fill="#000000" fill-opacity="1.000000" fill-rule="nonzero"/>
		<path id="Vector" d="M11.14 9.24C11.38 9.24 11.6 9.32 11.8 9.47C11.99 9.61 12.14 9.82 12.23 10.06C12.32 10.31 12.35 10.57 12.3 10.83C12.25 11.09 12.14 11.33 11.97 11.51C11.81 11.7 11.59 11.82 11.36 11.87C11.13 11.92 10.9 11.89 10.68 11.79C10.46 11.69 10.28 11.52 10.15 11.3C10.02 11.08 9.95 10.83 9.95 10.56C9.96 10.21 10.08 9.88 10.3 9.63C10.53 9.38 10.83 9.24 11.14 9.24ZM11.73 10.56C11.73 10.43 11.69 10.31 11.63 10.2C11.56 10.09 11.47 10.01 11.36 9.96C11.25 9.91 11.13 9.9 11.02 9.92C10.91 9.95 10.8 10.01 10.72 10.11C10.64 10.2 10.58 10.32 10.56 10.45C10.54 10.58 10.55 10.71 10.6 10.83C10.64 10.95 10.72 11.05 10.82 11.12C10.91 11.2 11.03 11.23 11.14 11.23C11.22 11.23 11.3 11.21 11.37 11.18C11.44 11.15 11.51 11.1 11.56 11.04C11.62 10.97 11.66 10.9 11.69 10.82C11.72 10.74 11.73 10.65 11.73 10.56L11.73 10.56Z" fill="#000000" fill-opacity="1.000000" fill-rule="nonzero"/>
	</g>
</svg>
